<svg id="Calque_1" data-name="Calque 1" xmlns="http://www.w3.org/2000/svg" viewBox="0 0 333.91 213.81"><defs><style>.cls-1{fill:#3f3d56;}.cls-2,.cls-5{fill:#1c3454;}.cls-10,.cls-3{fill:#ebebeb;}.cls-4{fill:none;stroke:#3f3d56;stroke-miterlimit:10;stroke-width:2px;}.cls-5{opacity:0.5;}.cls-6{fill:#f5bdbe;}.cls-7{opacity:0.1;isolation:isolate;}.cls-8{fill:#2f2e41;}.cls-9{fill:#8f0f06;}.cls-10{font-size:46px;font-family:Merienda-Regular_0_wt, Merienda;}.cls-11{letter-spacing:-0.03em;}</style></defs><title>enseignant</title><rect class="cls-1" x="42.69" width="291.22" height="123.96"/><rect class="cls-2" x="47.49" y="4.5" width="281.61" height="112.53"/><rect class="cls-1" x="273.11" y="111.66" width="27.35" height="8.66"/><rect class="cls-3" x="251.68" y="118.24" width="19.96" height="2.42"/><path class="cls-4" d="M283.41,308.16Z" transform="translate(-94.37 -271.81)"/><path class="cls-4" d="M324.8,307.82Z" transform="translate(-94.37 -271.81)"/><path class="cls-4" d="M324.8,310.59Z" transform="translate(-94.37 -271.81)"/><path class="cls-4" d="M400.57,326.17Z" transform="translate(-94.37 -271.81)"/><path class="cls-4" d="M393.54,328.94Z" transform="translate(-94.37 -271.81)"/><path class="cls-4" d="M310.39,360.1Z" transform="translate(-94.37 -271.81)"/><ellipse class="cls-5" cx="56.18" cy="204.11" rx="56.18" ry="9.69"/><path class="cls-6" d="M187.5,381.06l-.45,2.53s.67,17.51-4.28,12-1.57-12.86-1.57-12.86l1.35-2.11Z" transform="translate(-94.37 -271.81)"/><path class="cls-6" d="M158.69,300.07s-.91,8.86-1.36,9.28,6.76,8.44,6.76,8.44l6.3-5.48s-.45-8,.9-9.71S158.69,300.07,158.69,300.07Z" transform="translate(-94.37 -271.81)"/><path class="cls-7" d="M158.69,300.07s-.91,8.86-1.36,9.28,6.76,8.44,6.76,8.44l6.3-5.48s-.45-8,.9-9.71S158.69,300.07,158.69,300.07Z" transform="translate(-94.37 -271.81)"/><polygon class="cls-1" points="47.65 189.82 47.65 197.41 44.5 197.83 40 196.57 41.35 188.55 47.65 189.82"/><path class="cls-8" d="M138,465.42s-1.35-3.37-3.6-2.95-2.7,2.95-2.7,2.95-1.8,6.33-4.5,8.44-5.4,7.59,0,8.43,9.9-1.26,9.9-1.68a5.27,5.27,0,0,1,3.61-3.38c2.25-.42,4-.84,4-2.53a6.4,6.4,0,0,0-1.35-3.37s-.45-8-1.35-7a8.06,8.06,0,0,0-1.35,2.74Z" transform="translate(-94.37 -271.81)"/><polygon class="cls-1" points="67.01 186.02 65.21 192.35 69.71 193.19 71.96 191.08 72.41 185.6 67.01 186.02"/><path class="cls-8" d="M160.94,463.31a7.53,7.53,0,0,1,2.7-1.26H165s0-2.95,2.25-2.95a1.67,1.67,0,0,1,1.8,2.1s5,7.18,6.3,8.44,8.56,5.06,2.7,6.75-9.9,1.69-12.6-1.27a13.94,13.94,0,0,0-4.5-1.26c-1.8,0-4.06-.85-4.06-2.11a12.21,12.21,0,0,1,1.35-3.8s.91-7.59,1.36-6.75A24.3,24.3,0,0,0,160.94,463.31Z" transform="translate(-94.37 -271.81)"/><path class="cls-8" d="M141.58,360.81v13.92s-5,27-5,35.86-7.65,51-4.05,51.88,12.16,2.11,12.61.84,3.6-41.33,4-41.76,9.91-33.74,9.91-33.74l1.8.42.9,38s-4.51,34.17-2.25,34.17,11.7-.42,11.7-2.95,5-49.35,5-49.35,5.86-37.12,3.61-40.92-2.26-5.9-2.26-5.9Z" transform="translate(-94.37 -271.81)"/><ellipse class="cls-6" cx="71.74" cy="26.37" rx="9" ry="8.44"/><path class="cls-9" d="M164.09,312.73s-5.63-4.43-6.08-6.12c0,0-2.93,2.74-2.93,3.17s-12.6,1.68-15.75,5.06-5.86,10.54-5.86,10.54l7.66,13.5s.45,7.59.45,8.44-2.25,14.34-1.35,14.76,9.9,4.64,17.55,3.8,15.31-2.11,17.56-2.11,4.06.84,4.06,0-1.36-2.53-1.36-3.38-.45-2.95-.45-4.22-.9-3.37-.9-5.06,9.91-24.46,9.91-24.46A13.34,13.34,0,0,0,179,316.1c-7.21-3.37-8.11-4.64-8.11-4.64s-.14-2.53-.52-2.53-1.73,3.8-5.33,4.22Z" transform="translate(-94.37 -271.81)"/><polygon class="cls-6" points="45.4 97.02 48.55 101.66 56.66 99.97 50.8 93.64 45.4 97.02"/><path class="cls-9" d="M183.9,323.27l2.7,3.38s5.4,24.46,4.5,33.32-1.8,15.61-1.8,15.61,1.8,6.32.45,6.32-9.45.43-9.45-.84.9-9.28.9-9.28L179,353.22l-5-6.33Z" transform="translate(-94.37 -271.81)"/><path class="cls-8" d="M160,294.08a8,8,0,0,1,1.78-.13c.69-.11,1.31-.6,2-.54a4.11,4.11,0,0,1,1,.3,1.38,1.38,0,0,0,1,0,.51.51,0,0,0,.27-.7L166,293a2.84,2.84,0,0,0,1.6-.64,1.16,1.16,0,0,1,.31-.22,1.06,1.06,0,0,1,.78.12l1,.44a1.35,1.35,0,0,1,.59.4c.12.18.15.42.32.55s.55.09.84.11a1,1,0,0,1,1,1c0,.29-.11.63.13.81s.33.08.5.14c.42.16.42.71.36,1.14s0,1,.4,1.1.62-.1.93-.14a2.35,2.35,0,0,1,1.35.43,1.33,1.33,0,0,0,1.36.06,1.13,1.13,0,0,0,.22-1.18,6.12,6.12,0,0,0-.66-1.69,1,1,0,0,1-.19-.53.93.93,0,0,1,.47-.64c.52-.39,1.12-.78,1.29-1.38a5.63,5.63,0,0,0,0-1.36,7.2,7.2,0,0,0,.13-1.66c-.2-1-1.37-1.46-2.13-2.18-1-1-1.38-2.55-2.61-3.31-1-.61-2.27-.54-3.4-.89s-2.22-1.27-3.43-1.7A5.13,5.13,0,0,0,163,282a4,4,0,0,1-1.19.58,5,5,0,0,1-1.09,0,4.35,4.35,0,0,0-2.08.4,1.1,1.1,0,0,0-.58.48c-.22.45.1,1.16-.38,1.37a1.79,1.79,0,0,1-.73,0,1.39,1.39,0,0,0-1.08.8,3.73,3.73,0,0,1-.76,1.14c-.58.48-1.65.56-1.8,1.28a5.43,5.43,0,0,0,0,.9c0,.64-.77,1.12-.73,1.76s1,1.09,1.3,1.78a2.42,2.42,0,0,1-.24,1.63,1.33,1.33,0,0,0,.23,1.55c.19.13.43.19.61.32.49.33.49,1,.43,1.57a.72.72,0,0,0,.18.67.66.66,0,0,0,.55.06,2.18,2.18,0,0,0,1.4-1c.16-.24.19-.46.48-.59s.43,0,.63-.12C159.17,296.09,158.84,294.54,160,294.08Z" transform="translate(-94.37 -271.81)"/><path class="cls-9" d="M134.82,324.12l-1.35,1.26s-8.1,22.78-5.4,27.84,8.1,17.72,9.9,17.3,8.11-4.22,8.11-4.64-7.66-12.24-7.66-12.24-.9-2.53-.45-2.95.45,0,0-.84-.45,0,.45-.85.91-.84.91-1.26,2.7-11,2.7-11Z" transform="translate(-94.37 -271.81)"/><polygon class="cls-8" points="47.43 101.87 57.33 98.92 58.68 101.87 47.88 103.98 47.43 101.87"/><polygon class="cls-7" points="47.43 101.87 57.33 98.92 58.68 101.87 47.88 103.98 47.43 101.87"/><text id="portfolio" class="cls-10" transform="translate(115.33 73.18)"><tspan class="cls-11">P</tspan><tspan x="27.19" y="0">ort</tspan><tspan class="cls-11" x="94.62" y="0">f</tspan><tspan x="112.01" y="0">olio</tspan></text></svg>