<?xml version="1.0" encoding="utf-8"?>
<!-- Generator: Adobe Illustrator 23.0.6, SVG Export Plug-In . SVG Version: 6.00 Build 0)  -->
<svg version="1.1" id="Calque_1" xmlns="http://www.w3.org/2000/svg" xmlns:xlink="http://www.w3.org/1999/xlink" x="0px" y="0px"
	 viewBox="0 0 314.8 209.9" style="enable-background:new 0 0 314.8 209.9;" xml:space="preserve">
<style type="text/css">
	.st0{fill:#65617D;}
	.st1{opacity:0.2;enable-background:new    ;}
	.st2{fill:#3F3D56;}
	.st3{opacity:0.1;enable-background:new    ;}
	.st4{fill:#1C3454;}
	.st5{fill:#D5DEE3;}
	.st6{fill:#F5BDBE;}
	.st7{fill:url(#SVGID_1_);}
	.st8{opacity:0.1;}
	.st9{fill:none;stroke:#1C3454;stroke-width:2;stroke-miterlimit:10;}
	.st10{fill:#8F0002;}
</style>
<title>etudiant</title>
<polygon class="st0" points="314.8,201 314.8,206.8 251.6,207.4 250.9,207.5 226.9,207.7 226.3,207.7 219,207.8 218.8,207.8 
	174.3,208.2 101.3,208.9 101.3,208.9 82.7,209.1 82.5,209.1 0,210 0,203.2 19.4,190.7 58.3,190.4 59.2,190.4 59.4,190.4 60.3,190.4 
	78.9,190.2 79.8,190.2 80,190.2 80.9,190.2 86.9,190.1 87,190.1 101.8,190 101.9,190 217.3,188.9 220.1,188.9 220.4,188.9 
	222.5,188.9 238.2,188.8 239,188.7 239.8,188.7 240.2,188.7 245.1,188.7 246,188.7 247.3,188.7 251.4,188.6 257.8,188.6 
	258.6,188.6 260.1,188.6 260.3,188.6 291.4,188.3 "/>
<polygon class="st1" points="314.8,201 314.8,206.8 251.6,207.4 250.9,207.5 226.9,207.7 226.3,207.7 219,207.8 218.8,207.8 
	174.3,208.2 101.3,208.9 101.3,208.9 82.7,209.1 82.5,209.1 0,210 0,203.2 19.4,190.7 58.3,190.4 59.2,190.4 59.4,190.4 60.3,190.4 
	78.9,190.2 79.8,190.2 80,190.2 80.9,190.2 86.9,190.1 87,190.1 101.8,190 101.9,190 217.3,188.9 220.1,188.9 220.4,188.9 
	222.5,188.9 238.2,188.8 239,188.7 239.8,188.7 240.2,188.7 245.1,188.7 246,188.7 247.3,188.7 251.4,188.6 257.8,188.6 
	258.6,188.6 260.1,188.6 260.3,188.6 291.4,188.3 "/>
<path class="st2" d="M79,178.7v11c0,1-0.5,2-1.4,2.5c-0.3,0.2-0.7,0.3-1,0.3L62,192.7c-0.4,0-0.8-0.1-1.1-0.3
	c-0.9-0.5-1.5-1.4-1.5-2.4v-11.3H79z"/>
<path class="st3" d="M79,178.7v11c0,1-0.5,2-1.4,2.5c-0.3,0.2-0.7,0.3-1,0.3L62,192.7c-0.4,0-0.8-0.1-1.1-0.3
	c-0.9-0.5-1.5-1.4-1.5-2.4v-11.3H79z"/>
<path class="st2" d="M79.8,178.7v11c0,1-0.6,2-1.5,2.5c-0.3,0.2-0.7,0.3-1,0.3l-14.5,0.3c-0.4,0-0.8-0.1-1.1-0.3
	c-0.9-0.5-1.5-1.4-1.5-2.5v-11.3H79.8z"/>
<rect x="239" y="178.7" class="st2" width="19.6" height="14.1"/>
<rect x="239" y="178.7" class="st3" width="19.6" height="14.1"/>
<rect x="238.2" y="178.7" class="st2" width="19.6" height="14.1"/>
<path class="st0" d="M118,5.7h80.7c1.3,0,2.3,1.1,2.2,2.4c0,0,0,0,0,0l0,0v72.7c0.1,1.3-0.9,2.3-2.2,2.4c0,0,0,0,0,0H118
	c-1.3,0-2.3-1.1-2.2-2.4c0,0,0,0,0,0l0,0V8.1C115.7,6.8,116.7,5.7,118,5.7z"/>
<rect id="ecranmilieu" x="119.8" y="10.9" class="st4" width="77.3" height="64.5"/>
<g id="moniteurdroit_1_">
	<polygon class="st3" points="264.4,79.9 264.4,81.6 256.5,81.8 256.5,79.9 	"/>
	<rect id="brasdroit" x="256.5" y="79.9" class="st2" width="7.9" height="27.3"/>
	<path class="st0" d="M300,78.5c0.1,0.7-0.4,1.4-1.2,1.5c0,0,0,0,0,0h-0.1l-77.8,1.7c-0.7,0-1.3-0.6-1.3-1.3L213,5.6
		c-0.1-0.7,0.4-1.4,1.1-1.5h0.1L291.5,0h0.8c0.7,0,1.3,0.5,1.3,1.3L300,78.5z"/>
	<polygon id="ecrandroite" class="st4" points="217.4,8.5 287.9,4.8 293.9,72.8 223.9,74.5 	"/>
	<path class="st2" d="M300,78.5c0.1,0.7-0.4,1.4-1.2,1.5c0,0,0,0,0,0h-0.1l-7.3-80h0.8c0.7,0,1.3,0.5,1.3,1.3L300,78.5z"/>
</g>
<g id="moniteurgauche_1_">
	<polygon class="st3" points="51.8,81.3 51.8,83.8 43.9,83.6 43.9,81.3 	"/>
	<path class="st0" d="M103.8,9.1l-9.5,73.3c-0.1,0.9-0.9,1.7-1.8,1.7l-76-2.1H15c-1-0.1-1.8-1-1.8-2c0,0,0,0,0,0v-0.3L23.9,3
		c0.1-1,0.9-1.7,1.9-1.6L102.1,7C103.1,7.1,103.8,8,103.8,9.1L103.8,9.1z"/>
	<polygon id="ecrangauche" class="st4" points="29,6.7 21,74.4 90.8,76.8 99.4,11.5 	"/>
	<rect id="brasgauche" x="43.9" y="81.3" class="st2" width="7.9" height="25.8"/>
	<path class="st3" d="M25.8,1.4L16.5,82H15c-1-0.1-1.8-1-1.8-2c0,0,0,0,0,0v-0.3L23.9,3C24,2,24.9,1.3,25.8,1.4z"/>
</g>
<rect x="43.9" y="99.4" class="st3" width="7.9" height="7.6"/>
<polygon class="st3" points="79.8,178.7 79.8,180.9 60.2,181.4 60.2,178.7 "/>
<path class="st0" d="M114.5,102.1v75.2c0,0.9-0.7,1.7-1.6,1.8l-79.7,2.3l0,0c-0.9-0.1-1.7-0.8-1.6-1.8v-77.5c0-0.9,0.7-1.7,1.6-1.8
	h79.7C113.8,100.3,114.5,101.1,114.5,102.1z"/>
<path class="st3" d="M33.2,100.3v81l0,0c-0.9-0.1-1.7-0.8-1.6-1.8v-77.5C31.5,101.1,32.2,100.3,33.2,100.3z"/>
<polygon class="st5" points="36.8,105.1 110.6,105.1 110.6,171.4 36.8,173.2 "/>
<rect x="256.5" y="99.4" class="st3" width="7.9" height="7.8"/>
<polygon class="st3" points="257.8,178.7 257.8,181.5 238.2,181 238.2,178.7 "/>
<path class="st0" d="M283.7,102.1v77.5c0,0.9-0.7,1.7-1.7,1.8l0,0l-79.7-2.3c-0.9-0.1-1.6-0.8-1.6-1.8v-75.2c0-0.9,0.7-1.7,1.6-1.8
	H282C282.9,100.3,283.7,101.1,283.7,102.1C283.7,102.1,283.7,102.1,283.7,102.1z"/>
<path class="st3" d="M283.7,102.1v77.5c0,0.9-0.7,1.7-1.7,1.8l0,0v-81l0,0C282.9,100.3,283.7,101.1,283.7,102.1z"/>
<polygon class="st5" points="278.4,105.1 204.6,105.1 204.6,171.4 278.4,173.2 "/>
<path class="st0" d="M198.6,102.1v75.2c0,0.9-0.7,1.7-1.6,1.8l-79.7,2.3l0,0c-0.9,0-1.7-0.8-1.7-1.8v-77.5c0-0.9,0.7-1.7,1.6-1.8
	H197C197.9,100.3,198.7,101.1,198.6,102.1z"/>
<polygon class="st5" points="121,105.1 194.8,105.1 194.8,171.4 121,173.2 "/>
<polygon class="st3" points="314.8,201 314.8,206.8 251.6,207.4 250.9,207.5 226.9,207.7 226.3,207.7 219,207.8 218.8,207.8 
	174.3,208.2 101.3,208.9 101.3,208.9 82.7,209.1 82.5,209.1 0,210 0,203.2 84.2,202.6 84.4,202.6 101.4,202.5 101.5,202.5 
	219.2,201.7 219.4,201.7 219.4,201.7 219.6,201.7 221.6,201.7 222.2,201.7 253.2,201.4 255,201.4 255.4,201.4 "/>
<ellipse class="st6" cx="158.5" cy="84.1" rx="21.3" ry="22.9"/>
<linearGradient id="SVGID_1_" gradientUnits="userSpaceOnUse" x1="515.36" y1="-181.4444" x2="515.36" y2="-12.7782" gradientTransform="matrix(1 0 0 -1 -343.9 27.9756)">
	<stop  offset="0" style="stop-color:#808080;stop-opacity:0.25"/>
	<stop  offset="0.54" style="stop-color:#808080;stop-opacity:0.12"/>
	<stop  offset="1" style="stop-color:#808080;stop-opacity:0.1"/>
</linearGradient>
<path class="st7" d="M82.5,209.3c0-0.1,0-0.1,0.1-0.1c0.4-1.6,1.2-4.3,1.7-6.5c0.1-0.3,0.1-0.5,0.2-0.8c0.6-2.4,1.8-8.2,2.5-11.8
	c0.2-1.3,0.4-2.2,0.4-2.7c0.8-2.6,1.7-5.2,2.8-7.7c1-2.6,2.1-5.5,2.9-7.9c0.5-1.4,0.9-2.9,1.2-4.4c0.1-0.3,0.1-0.7,0-1
	c-0.1-0.5-0.2-1-0.2-1.6l0,0c-0.1-2.8,0.7-7.2,1.9-9c1.4-2.2,2.5-10.6,2.5-10.6s2.2,0.3,2.5-1.6c0-0.2,0-0.4,0-0.6
	c0-0.2,0-0.3,0-0.5c-0.4-2.8,6.1-5.8,9.8-6.4c0.4-0.1,0.8-0.1,1.3-0.1c0.9-0.1,1.8-0.3,2.6-0.6c0.4-0.1,0.8-0.3,1.2-0.4
	c1.5-0.6,3.4-1.3,5.3-2.1c7.3-3,16.1-7.2,16.1-7.2c0.1-0.3,0.1-0.6,0.2-0.9c0.8-3.7,3.3-6.9,6.8-8.5l0,0v-0.9c0-1.6-0.1-3.1-0.1-4.7
	v-2.3l-0.1-0.1c-0.6-0.5-1.2-1.2-1.6-1.9c-0.2-0.4-0.4-0.9-0.6-1.3c-0.4-1.6-0.8-3.2-1-4.8l-0.1-0.3c-0.4-1.6-1-3.2-1.7-4.7
	c-0.9-2.4-1.6-4.9-2.3-7.4c-0.4-1.5-0.9-3.1-1.3-4.6l-0.7-2.2c-0.1-0.4-0.3-0.9-0.3-1.3l0,0c-0.1-0.2-0.1-0.4-0.1-0.6l0,0
	c-0.1-0.7-0.1-1.4,0.1-2.1c0.2-0.5,0.3-0.9,0.6-1.3c0.1-0.2,0.2-0.4,0.2-0.6l0,0v-0.1c0-0.2,0-0.3,0-0.5c0-0.6-0.1-1.2-0.2-1.7l0,0
	v-0.1c-0.1-0.4-0.1-0.9-0.1-1.3c-0.2-2.4,0.3-4.8,1.4-7l0.1-0.2c0.2-0.4,0.5-0.8,0.8-1.3l0,0c0.1-0.2,0.3-0.4,0.4-0.5
	c-0.6,0.5-1.5,0.4-2-0.2c0,0,0,0,0,0l0,0l-0.1-0.1c-0.1-0.1-0.2-0.2-0.2-0.3l-0.1-0.2l-0.1-0.2c-0.2-1.1,0.1-2.3,0.9-3.2
	c0.6-0.9,1.5-1.6,2.4-2.1l0,0c0.1,0,0.1-0.1,0.2-0.1c0.4-0.2,0.7-0.4,1.1-0.5l0,0c0.2-0.1,0.4-0.1,0.7-0.2l-1.6-0.2l-0.6-0.1
	c0.5-2.6,2.7-4.6,5.4-4.9h0.4c0.2,0,0.4,0,0.6,0.1c-0.7-0.4-1.2-1.1-1.1-1.9c1.1,0.9,2.4,1.4,3.8,1.4h0.2c-0.1-0.5-0.1-1-0.1-1.5
	l0,0c0-0.7,0-1.3,0-2c0.7,0.8,1.8,1.1,2.8,1l-0.9-1.3c0.8,0.7,1.7,1,2.7,0.9h0.2c0.2,0,0.3,0,0.5-0.1l0,0l-0.2-0.3v-0.1
	c-0.2-0.3-0.3-0.6-0.4-0.9c0-0.1-0.1-0.3-0.1-0.4l0,0c-0.2-0.8-0.1-1.7,0.2-2.4c1.3,1.2,2.8,2.9,4.6,1.6s1.8-3.5,4.6-3.3
	c1.6,0.2,2.9,1.2,3.5,2.7c0.8-1,2.1-1.3,3.2-0.8c1.1,0.6,1.7,1.8,1.6,3.1c1.1-0.4,2.3-0.5,3.4-0.2c1.1,0.5,1.7,1.8,1.2,2.9
	c0,0,0,0,0,0l0,0v0.1l-0.1,0.1c-0.5,0.7-1.6,1.1-1.5,2l0.2,0.1l0.5,0.4l0,0c2.1,1.7,4.2,3.4,6.2,5.2c1,0.9,2.1,2,2.2,3.5
	c0,0.4,0,0.7-0.1,1.1l0,0c-0.1,0.3-0.2,0.7-0.2,1c-0.2,0.9-0.2,1.8-0.1,2.7l0,0c0,0.3,0.1,0.5,0.1,0.8c0.6,3.4,3.2,6.3,3.5,9.8v0.3
	c0,0.4,0,0.8,0,1.1c-0.3,2.2-1,4.3-1.8,6.3c-0.1,0.1-0.1,0.3-0.1,0.4c-1.4,4.1-2.3,8.3-2.9,12.6c-0.2,1.5-0.5,3-0.8,4.5
	c-0.4,1.7-1.1,3.3-2.1,4.7c-0.4,0.5-0.9,1-1.4,1.3c-0.3,0.2-0.7,0.4-1.1,0.6l0,0c0,0.3,0.1,0.6,0.1,0.8c0,0.2,0,0.3,0.1,0.4l0,0
	c0.4,2.1,0.8,4.2,1.2,6.2l0.2,1c5.2,2,5.9,6.2,5.9,7.8c0,0.2,0,0.4,0,0.6c0,0,7.9,0.2,11,2.7c0.6,0.4,1.2,0.7,1.9,1
	c1.3,0.5,2.5,0.9,3.8,1.3c0.7,0.2,1.4,0.4,2.1,0.6c1.3,0.3,2.6,0.6,3.9,0.9c3.4,0.7,6.6,1.3,8.2,1.8c3.9,1.1,12.8,10.2,12.8,10.2
	s1,9.2,2.1,10.6c1.1,1.9,2.1,3.9,2.9,6l6.9,13.2l2.9,5.5h1.9c0.5,0.2,1,0.5,1.3,0.9c0.5,0.5,1,1.1,1.5,1.6l0.8,0.9l0.5,0.6
	c0,0,3,0.1,3.9,2.6c2.5-0.1,5.5,0.1,7.6,1.1c0.3,0.1,0.6,0.3,0.8,0.5c0.9,0.6,1.5,1.5,1.7,2.5c0,0.2,0.1,0.4,0.1,0.6v0.8
	c-0.1,3.4-2.2,6.2-4.1,8.1l0.1,0.3c0,0-0.1,0.2-0.2,0.4c0,0.1-0.1,0.2-0.1,0.3l0,0c-0.3,0.6-0.6,1.4-1.1,2.4c-1.1,2.1-2.4,4.1-4,5.9
	l-0.1,0.1l-24,0.2l-0.1-0.1l-4.7-6l-2.3-3l-0.1-0.1l-0.1,0.7l-0.2,2.4l-0.5,5.7v0.4l-0.1,0.7v-0.7h-0.1l-44.5,0.4l-73,0.9v0.4h-0.1
	V209l-18.6,0.2L82.5,209.3z"/>
<path class="st6" d="M179.8,131c0,0-41.4,5.3-37.4,0c1.4-1.9,1.8-7.7,1.8-14.2c0-2-0.1-4-0.2-6.1c-0.5-9.8-1.6-19.5-1.6-19.5
	s36.2-18.3,32-3.8c-1.7,5.9-1.1,14.1,0.1,21.9c0.4,2.3,0.8,4.5,1.3,6.6C176.9,121,178.2,126,179.8,131z"/>
<path class="st3" d="M179.8,131c0,0-41.4,5.3-37.4,0c1.4-1.9,1.8-7.7,1.8-14.2c6.3-2.9,14.3-0.7,14.3-0.7c8.4-1.8,13.9-1.5,17.3-0.2
	C176.9,121,178.3,126,179.8,131z"/>
<path class="st4" d="M101.3,209.5v-0.4l73-0.9l44.5-0.4h0.1v0.7l0.1-0.7h0.1v-0.1l0.6-6l0.2-2.3l0.1-0.7l0.1-0.6l2.6-9.2l2.6-9.2
	l2.2-7.7l3.3-11.8c-0.8-2.1-1.8-4.1-2.9-6c-1-1.3-2.1-10.5-2.1-10.5s-8.9-9.1-12.8-10.1c-1.6-0.4-4.8-1-8.3-1.8
	c-1.3-0.3-2.6-0.6-3.8-0.9c-0.7-0.2-1.4-0.4-2.1-0.5c-1.3-0.4-2.6-0.8-3.9-1.3c-0.7-0.3-1.3-0.6-1.9-1c-3-2.4-10.7-2.7-11-2.7l0,0
	v-0.1c0-0.2,0-0.4,0-0.6c0-0.2,0-0.4,0-0.6c0-0.1,0-0.2,0-0.2c0-0.2,0-0.3-0.1-0.5v-0.2c-0.1-0.5-0.3-1.1-0.5-1.6
	c0-0.1-0.1-0.1-0.1-0.2c-0.2-0.4-0.4-0.8-0.7-1.2l-0.2-0.2c-0.3-0.4-0.7-0.8-1.1-1.2c-0.1-0.1-0.2-0.2-0.4-0.3l-0.2-0.2l-0.4-0.3
	l-0.4-0.2c-0.3-0.2-0.7-0.4-1-0.5l-0.3-0.2l-0.4-0.2l0,0l-0.3-0.1c-0.2-0.1-0.5-0.2-0.7-0.2l-0.4-0.1l-0.4-0.1l-0.4-0.1
	c-0.4-0.1-0.9-0.2-1.3-0.2h-3.1c-3.7-0.1-7.4,0.3-11,1.1c-2.5-0.6-5-0.9-7.6-0.8h-1.6c-0.2,0-0.4,0-0.5,0.1l-0.5,0.1H148
	c-0.3,0-0.6,0.1-0.8,0.2l-0.3,0.1c-0.4,0.1-0.7,0.2-1.1,0.3l-0.5,0.2l-0.3,0.1l-0.3,0.1l-0.3,0.1l-0.3,0.1l-0.5,0.2l-0.3,0.1
	l-0.3,0.1c-1,0.5-1.8,1.2-2.6,2l-0.2,0.2l-0.2,0.2l-0.2,0.2c-0.3,0.3-0.5,0.7-0.8,1l-0.2,0.3c-0.3,0.4-0.5,0.9-0.7,1.3l-0.1,0.3
	c-0.3,0.8-0.6,1.5-0.8,2.3l-0.2,0.9c-0.1,0.4-8.8,4.2-16.1,7.2c-1.9,0.8-3.8,1.5-5.3,2.1l-1.3,0.4c-0.8,0.3-1.7,0.5-2.6,0.6
	c-0.4,0-0.8,0.1-1.3,0.1c-3.3,0.6-9.1,3.1-9.7,5.7c0,0.2,0,0.4,0,0.6l0,0c0.3,1.1-0.3,2.3-1.4,2.6l0,0c-0.4,0.1-0.7,0.1-1.1,0
	c0,0-1,8.3-2.5,10.5c-1,1.6-1.8,5.2-1.9,7.9l0,0c-0.1,0.8,0,1.7,0.2,2.5v0.1c0.2,0.6-0.2,2.2-0.9,4.3c-0.7,2.3-1.8,5.2-2.8,7.9
	c-1.6,4.1-3,7.8-3.1,8.6c-0.1,0.6-0.2,1.2-0.3,1.9c-0.6,3.4-2,9.9-2.6,12.5c-0.5,2-1.2,4.6-1.7,6.5c0,0.1,0,0.1,0,0.2l18.6-0.2v0.4
	l0,0L101.3,209.5z"/>
<path class="st3" d="M108.1,156.8c0,0,23.7,13.2,32.2,11.6L108.1,156.8z"/>
<path class="st3" d="M156.3,151.4c0,0,23.1,8,30.8,9.2S156.3,151.4,156.3,151.4z"/>
<path class="st3" d="M181.9,125.5c-12.1,2.4-34.8,1.9-44.6,1.5c3.6-13.9,21.1-9.2,21.1-9.2C180.2,113.2,181.9,122.9,181.9,125.5z"/>
<path class="st4" d="M181.9,124.6c-12.1,2.4-34.8,1.9-44.6,1.5c3.6-13.9,21.1-9.1,21.1-9.1C180.2,112.3,181.9,122,181.9,124.6z"/>
<path class="st3" d="M174.6,109.3c-0.6,0.3-1.2,0.6-1.9,0.8c-4.5,1.7-9,3.3-13.7,3.9s-9.7,0.1-13.8-2.4c-0.4-0.3-0.8-0.6-1.2-0.9
	c-0.5-9.8-1.6-19.5-1.6-19.5s36.2-18.3,32-3.8C172.8,93.4,173.3,101.6,174.6,109.3z"/>
<path class="st2" d="M152.6,48.2c-1.2,0.3-2.5,0-3.5-0.8l0.9,1.3c-1,0.1-2.1-0.2-2.8-1c-0.1,1.2,0,2.3,0.1,3.5
	c-1.5,0.1-2.9-0.4-4-1.3c-0.1,0.8,0.4,1.6,1.1,1.9c-3.1-0.3-5.8,1.8-6.4,4.8l2.2,0.2c-1.7,0.4-3.3,1.4-4.3,2.8
	c-0.8,0.9-1.1,2-0.9,3.1c0.3,1.1,1.7,1.8,2.5,1c-2.2,2.9-3.2,6.6-2.6,10.2c0.2,0.8,0.3,1.6,0.2,2.4c-0.2,0.7-0.5,1.4-0.8,2.1
	c-0.3,1.3-0.1,2.7,0.4,4l1.9,6.9c0.7,2.5,1.4,5,2.3,7.4c0.7,1.5,1.2,3.1,1.7,4.7c0.5,2.2,0.6,4.5,1.7,6.4c0.8,1.2,1.8,2.1,3,2.8
	c4.1,2.5,9.1,3.1,13.8,2.5s9.2-2.3,13.7-4c1-0.3,2-0.8,2.8-1.3c3.1-2.2,3.8-6.6,4.4-10.6c0.5-4.4,1.6-8.7,3-12.9
	c0.9-2.4,2.1-5,1.9-7.6c-0.3-3.5-2.8-6.3-3.5-9.8c-0.2-1.1-0.2-2.3,0-3.5c0.2-0.7,0.3-1.4,0.3-2.1c-0.1-1.4-1.2-2.5-2.2-3.5
	c-2.2-2-4.5-3.9-6.9-5.7c-0.1-0.9,1-1.3,1.5-2c0.6-1,0.2-2.3-0.9-2.9c0,0,0,0,0,0c-0.1,0-0.2-0.1-0.3-0.1c-1.1-0.3-2.4-0.3-3.5,0.2
	c0.2-1.6-0.8-3-2.4-3.3c-0.9-0.1-1.9,0.3-2.4,1c-0.6-1.5-1.9-2.5-3.5-2.7c-2.8-0.2-2.8,2-4.6,3.3s-3.2-0.4-4.6-1.6
	C151.5,45.5,151.7,47,152.6,48.2z"/>
<g id="maindroite">
	<path class="st6" d="M245.9,185.7c0,0,14.2-2.3,14.5,4.4s-7.3,11.4-7.3,11.4L245.9,185.7z"/>
	<path class="st4" d="M256.5,199.1c-0.3,0.8-0.7,1.6-1.1,2.3c-1,2.1-2.3,4.1-3.7,5.9l-0.1,0.1h-0.7l-24,0.2h-0.6l-0.1-0.1l-4.6-5.9
		l-1.8-2.2l-0.1-0.1l-0.1-0.2l-0.1-0.1l-0.1-0.1l-3.4-4.4l1.2-5.6l2.1-9.4v-0.2l0.4-1.8l0.3-1.3l1-4.4l3.4-15l6,3.4l6.4,12.1
		l3.4,6.5h1.9c0.4,0,1.2,0.7,2,1.6c0.3,0.3,0.6,0.6,0.8,0.9c0.7,0.8,1.3,1.5,1.3,1.5s3,0.1,3.9,2.6c0,0.1,0.1,0.3,0.1,0.4
		c0.3,1,0.6,2,1.1,2.9c0.5,1.3,1.2,2.7,1.9,4.1c1.3,2.6,2.6,5.1,3,6l0.1,0.1L256.5,199.1z"/>
</g>
<path class="st3" d="M220.8,179v0.7l-0.1,1l-0.6,8.3l-0.7,10l-0.2,2.8l-0.4,6v0.1l-44.5,0.4l-73,0.9v0.4h-0.1V209l0.2-6.4l0.4-12.6
	l0.3-10.6v-1.1c0-2.5,2-4.5,4.5-4.6h0.2c2,0.2,4.5,0.4,7.6,0.6l1.3,0.1c17.6,1.3,50.1,3,82.9,0.9c0.7,0,1.4-0.1,2.1-0.1
	c5.1-0.3,10.2-0.8,15.2-1.3c2.5-0.2,4.6,1.7,4.8,4.1v0.1C220.8,178.4,220.8,178.7,220.8,179L220.8,179z"/>
<path class="st2" d="M101.3,209.5v-0.4l73-0.9l44.5-0.4h0.1v-0.1l0.4-6l0.2-2.7l0.7-10l0.5-8v-0.2c0-0.4,0-0.7-0.1-1.1l0,0
	c-0.1-0.7-0.4-1.5-0.8-2.1c-0.9-1.3-2.4-1.9-3.9-1.8c-5,0.6-10.1,1-15.2,1.3c-0.7,0.1-1.4,0.1-2.1,0.1c-32.8,2.1-65.4,0.4-82.9-0.9
	l-1.3-0.1c-3-0.2-5.6-0.4-7.6-0.6c-2.3-0.1-4.4,1.5-4.7,3.8c0,0.2-0.1,0.5-0.1,0.7l-0.3,9.9l-0.4,12.5l-0.2,6.4v0.5L101.3,209.5z"/>
<path class="st3" d="M220.9,182.1l-0.5,6.9l-0.8,10.2l-0.2,2.6l-0.4,5.7v0.4l0,0l-0.1,0.7v-0.7h-0.1l-44.5,0.4l-73,0.9V209l0.2-6.4
	L102,190l0.3-8.3c0-0.9,0.5-1.8,1.3-2.4c0.5-0.3,1-0.5,1.6-0.4l3.2,0.3c2,0.2,4.5,0.4,7.5,0.5c5.4,0.4,12.2,0.8,20,1.1
	c21.6,0.9,50.8,1.2,78.5-1.4l3.7-0.4c0.5-0.1,1,0.1,1.4,0.3c0.1,0.1,0.3,0.1,0.4,0.2c0.4,0.3,0.7,0.7,0.8,1.1c0,0.1,0.1,0.2,0.1,0.3
	C220.9,181.3,220.9,181.7,220.9,182.1z"/>
<path class="st3" d="M79.8,188.2v1.4c0,1-0.6,2-1.5,2.5l-16.7,0.4c-0.9-0.5-1.5-1.4-1.5-2.4v-1.4L79.8,188.2z"/>
<polygon class="st2" points="80,192.9 58.3,193.4 58.3,189.5 80,189 "/>
<polygon class="st3" points="80,192.9 58.3,193.4 58.3,189.5 80,189 "/>
<polygon class="st2" points="80.9,192.9 59.2,193.4 59.2,189.5 80.9,189 "/>
<g class="st8">
	<path d="M152.8,46.8c-0.4-0.6-0.7-1.2-0.8-1.9c-0.1,0.7,0,1.4,0.2,2.1C152.4,46.9,152.6,46.8,152.8,46.8z"/>
	<path d="M147.5,49.7c-0.1-0.5-0.1-1.1-0.1-1.7v1.7H147.5z"/>
	<path d="M181.5,64.6c0-0.4,0.1-0.8,0.1-1.2c0.2-0.7,0.3-1.4,0.3-2.1c0-0.2,0-0.3-0.1-0.5c-0.1,0.4-0.2,0.8-0.3,1.2
		C181.4,62.9,181.4,63.8,181.5,64.6z"/>
	<path d="M172.8,50.8l0.4,0.4c0.4-0.3,0.7-0.6,1.1-1c0.3-0.5,0.4-1.1,0.2-1.6c0,0.1-0.1,0.2-0.2,0.3C173.8,49.6,172.6,50,172.8,50.8
		z"/>
	<path d="M138.6,55.1c-0.2,0.3-0.3,0.7-0.4,1c0.6-0.4,1.3-0.7,2.1-0.8L138.6,55.1z"/>
	<path d="M144.3,50.3c-0.3-0.2-0.5-0.3-0.8-0.5c0,0.2,0,0.4,0,0.5C143.8,50.2,144.1,50.2,144.3,50.3z"/>
	<path d="M185,76.6c-0.3,2.2-1,4.4-1.9,6.4c-1.4,4.2-2.5,8.5-3,12.9c-0.6,3.9-1.3,8.4-4.4,10.6c-0.9,0.6-1.8,1-2.8,1.3
		c-4.4,1.8-9,3.2-13.7,4c-4.7,0.8-9.6-0.1-13.8-2.5c-1.2-0.7-2.3-1.7-3-2.8c-1.1-1.9-1.1-4.3-1.7-6.4c-0.5-1.6-1-3.2-1.7-4.7
		c-0.9-2.4-1.6-4.9-2.3-7.4l-1.9-7c-0.2-0.7-0.4-1.4-0.5-2.1c-0.1,1.2,0.1,2.4,0.5,3.5l1.9,6.9c0.7,2.5,1.4,5,2.3,7.4
		c0.7,1.5,1.2,3.1,1.7,4.7c0.5,2.2,0.5,4.5,1.7,6.4c0.8,1.2,1.8,2.1,3,2.8c4.1,2.5,9.1,3.1,13.8,2.4s9.2-2.3,13.7-4
		c1-0.3,2-0.8,2.8-1.3c3.1-2.2,3.8-6.6,4.4-10.6c0.5-4.4,1.6-8.7,3-12.9C184,81.8,185.2,79.3,185,76.6C185,76.7,185,76.6,185,76.6z"
		/>
	<path d="M135.2,74.9L135.2,74.9c0.1-0.8,0-1.6-0.2-2.3c-0.1-0.5-0.1-1-0.2-1.5c0,0.9,0,1.9,0.2,2.8
		C135.1,74.2,135.2,74.5,135.2,74.9z"/>
	<path d="M136.5,64c0.3-0.6,0.7-1.1,1.1-1.6c-0.8,0.8-2.2,0.1-2.5-1c-0.1,0.4-0.1,0.9,0,1.3C135.3,63.4,135.8,63.8,136.5,64z"/>
</g>
<path class="st3" d="M240.3,178.7c0.8,3.2,0.8,6.5,0,9.6C239,192.7,240.3,178.7,240.3,178.7z"/>
<path class="st3" d="M245.9,184c0,0,0.6,6.5-0.7,7.7S245.9,184,245.9,184z"/>
<line id="trait5" class="st9" x1="38.6" y1="115.7" x2="80.9" y2="115.3"/>
<line id="trait4" class="st9" x1="38.6" y1="121.3" x2="80.9" y2="120.8"/>
<line id="trait3" class="st9" x1="38.6" y1="126.9" x2="80.9" y2="126.4"/>
<line id="trait2" class="st9" x1="38.6" y1="131.8" x2="80.9" y2="131.3"/>
<line id="trait1" class="st9" x1="38.6" y1="136.7" x2="80.9" y2="136.2"/>
<line id="trait6" class="st9" x1="221.1" y1="113.2" x2="263.3" y2="112.8"/>
<line id="trait7" class="st9" x1="221.1" y1="119.2" x2="263.3" y2="118.7"/>
<line id="trait8" class="st9" x1="221.1" y1="124.3" x2="263.3" y2="123.9"/>
<rect id="recrouge" x="42.4" y="145.5" class="st10" width="44.9" height="20.9"/>
</svg>
